name ./resultDataOpenSim/trcMotMarkerGrf/sub09/grf-01-05.mot
datacolumns 19
datarows 22
range 0.92800000 1.01200000
endheader

                time	     ground_force_vx	     ground_force_vy	     ground_force_vz	     ground_force_px	     ground_force_py	     ground_force_pz	   l_ground_force_vx	   l_ground_force_vy	   l_ground_force_vz	   l_ground_force_px	   l_ground_force_py	   l_ground_force_pz	     ground_torque_x	     ground_torque_y	     ground_torque_z	   l_ground_torque_x	   l_ground_torque_y	   l_ground_torque_z	
          0.92800000	          0.00000000	          0.00000000	          0.00000000	          0.00000000	          0.00000000	          0.00000000	        -12.22133140	        365.39279715	          1.76913070	          0.19171724	         -0.00000000	          0.06153848	          0.00000000	          0.00000000	          0.00000000	          0.00000000	         -0.20232169	          0.00000000	
          0.93200000	          0.00000000	          0.00000000	          0.00000000	          0.00000000	          0.00000000	          0.00000000	        -11.41793612	        371.18000802	          1.84460156	          0.19214370	         -0.00000000	          0.06125748	          0.00000000	          0.00000000	          0.00000000	          0.00000000	         -0.30574414	          0.00000000	
          0.93600000	          0.00000000	          0.00000000	          0.00000000	          0.00000000	          0.00000000	          0.00000000	        -10.54377788	        377.53474601	          1.96675643	          0.19237417	         -0.00000000	          0.06091840	          0.00000000	          0.00000000	          0.00000000	          0.00000000	         -0.41577093	          0.00000000	
          0.94000000	          0.00000000	          0.00000000	          0.00000000	          0.00000000	          0.00000000	          0.00000000	         -9.58765500	        384.52860010	          2.18661006	          0.19237533	         -0.00000000	          0.06052294	          0.00000000	          0.00000000	          0.00000000	          0.00000000	         -0.52408899	          0.00000000	
          0.94400000	          0.00000000	          0.00000000	          0.00000000	          0.00000000	          0.00000000	          0.00000000	         -8.50903223	        392.23734978	          2.55101140	          0.19216901	         -0.00000000	          0.06010435	          0.00000000	          0.00000000	          0.00000000	          0.00000000	         -0.62395692	          0.00000000	
          0.94800000	          0.00000000	          0.00000000	          0.00000000	          0.00000000	          0.00000000	          0.00000000	         -7.24270645	        400.67257926	          3.08240790	          0.19183606	         -0.00000000	          0.05971056	          0.00000000	          0.00000000	          0.00000000	          0.00000000	         -0.71184349	          0.00000000	
          0.95200000	          0.00000000	          0.00000000	          0.00000000	          0.00000000	          0.00000000	          0.00000000	         -5.71203444	        409.74125328	          3.77096722	          0.19148205	         -0.00000000	          0.05937728	          0.00000000	          0.00000000	          0.00000000	          0.00000000	         -0.78825634	          0.00000000	
          0.95600000	          0.00000000	          0.00000000	          0.00000000	          0.00000000	          0.00000000	          0.00000000	         -3.83946674	        419.31680610	          4.58354447	          0.19120083	         -0.00000000	          0.05912201	          0.00000000	          0.00000000	          0.00000000	          0.00000000	         -0.85762711	          0.00000000	
          0.96000000	          0.00000000	          0.00000000	          0.00000000	          0.00000000	          0.00000000	          0.00000000	         -1.54764010	        429.33307695	          5.47786457	          0.19105151	         -0.00000000	          0.05894679	          0.00000000	          0.00000000	          0.00000000	          0.00000000	         -0.92744650	          0.00000000	
          0.96400000	          0.00000000	          0.00000000	          0.00000000	          0.00000000	          0.00000000	          0.00000000	          1.23677423	        439.79451822	          6.40630548	          0.19104163	         -0.00000000	          0.05883747	          0.00000000	          0.00000000	          0.00000000	          0.00000000	         -1.00696158	          0.00000000	
          0.96800000	          0.00000000	          0.00000000	          0.00000000	          0.00000000	          0.00000000	          0.00000000	          4.56917814	        450.73612051	          7.31252818	          0.19112160	         -0.00000000	          0.05876645	          0.00000000	          0.00000000	          0.00000000	          0.00000000	         -1.10568585	          0.00000000	
          0.97200000	          0.00000000	          0.00000000	          0.00000000	          0.00000000	          0.00000000	          0.00000000	          8.47193404	        462.18995380	          8.14259308	          0.19121264	         -0.00000000	          0.05870459	          0.00000000	          0.00000000	          0.00000000	          0.00000000	         -1.23194056	          0.00000000	
          0.97600000	          0.00000000	          0.00000000	          0.00000000	          0.00000000	          0.00000000	          0.00000000	         12.92459691	        474.13738625	          8.86412037	          0.19126718	         -0.00000000	          0.05863418	          0.00000000	          0.00000000	          0.00000000	          0.00000000	         -1.39169575	          0.00000000	
          0.98000000	          0.00000000	          0.00000000	          0.00000000	          0.00000000	          0.00000000	          0.00000000	         17.86411396	        486.46081510	          9.46471788	          0.19130195	         -0.00000000	          0.05855214	          0.00000000	          0.00000000	          0.00000000	          0.00000000	         -1.58792419	          0.00000000	
          0.98400000	          0.00000000	          0.00000000	          0.00000000	          0.00000000	          0.00000000	          0.00000000	         23.19494642	        498.96818966	          9.94211529	          0.19135885	         -0.00000000	          0.05846039	          0.00000000	          0.00000000	          0.00000000	          0.00000000	         -1.82047145	          0.00000000	
          0.98800000	          0.00000000	          0.00000000	          0.00000000	          0.00000000	          0.00000000	          0.00000000	         28.79711249	        511.48932291	         10.31395765	          0.19146435	         -0.00000000	          0.05835044	          0.00000000	          0.00000000	          0.00000000	          0.00000000	         -2.08630423	          0.00000000	
          0.99200000	          0.00000000	          0.00000000	          0.00000000	          0.00000000	          0.00000000	          0.00000000	         34.53794500	        523.97601378	         10.62546939	          0.19161262	         -0.00000000	          0.05821219	          0.00000000	          0.00000000	          0.00000000	          0.00000000	         -2.38001573	          0.00000000	
          0.99600000	          0.00000000	          0.00000000	          0.00000000	          0.00000000	          0.00000000	          0.00000000	         40.30972615	        536.54543169	         10.92862949	          0.19176246	         -0.00000000	          0.05805294	          0.00000000	          0.00000000	          0.00000000	          0.00000000	         -2.69446182	          0.00000000	
          1.00000000	          0.00000000	          0.00000000	          0.00000000	          0.00000000	          0.00000000	          0.00000000	         46.06839128	        549.41397868	         11.26545125	          0.19188778	         -0.00000000	          0.05789919	          0.00000000	          0.00000000	          0.00000000	          0.00000000	         -3.02135757	          0.00000000	
          1.00400000	          0.00000000	          0.00000000	          0.00000000	          0.00000000	          0.00000000	          0.00000000	         51.82931723	        562.75482004	         11.68053682	          0.19201276	         -0.00000000	          0.05777228	          0.00000000	          0.00000000	          0.00000000	          0.00000000	         -3.35177940	          0.00000000	
          1.00800000	          0.00000000	          0.00000000	          0.00000000	          0.00000000	          0.00000000	          0.00000000	         57.64009455	        576.61977323	         12.22302457	          0.19222438	         -0.00000000	          0.05769160	          0.00000000	          0.00000000	          0.00000000	          0.00000000	         -3.67668261	          0.00000000	
          1.01200000	          0.00000000	          0.00000000	          0.00000000	          0.00000000	          0.00000000	          0.00000000	         63.55874371	        590.97261532	         12.92539265	          0.19256198	         -0.00000000	          0.05766526	          0.00000000	          0.00000000	          0.00000000	          0.00000000	         -3.98745812	          0.00000000	
